HIERARCHY
ROOT pelvis
{
  OFFSET 0 100 0
  CHANNELS 6 Xposition Yposition Zposition Zrotation Xrotation Yrotation
  JOINT pelvis_right_femur
  {
    OFFSET -10.78128 -3.44521 -0.5502486
    CHANNELS 3 Zrotation Xrotation Yrotation
    JOINT right_femur_tibia
    {
      OFFSET -0.8047443 -44.0398 -0.1307829
      CHANNELS 3 Zrotation Xrotation Yrotation
      JOINT right_tibia_foot
      {
        OFFSET 3.006224 -47.83518 -5
        CHANNELS 3 Zrotation Xrotation Yrotation
        End Site
        {
          OFFSET 0 -5 15
        }
      }
    }
  }
  JOINT pelvis_left_femur
  {
    OFFSET 10.78128 -3.44521 -0.5502486
    CHANNELS 3 Zrotation Xrotation Yrotation
    JOINT left_femur_tibia
    {
      OFFSET 0.8047443 -44.0398 -0.1307829
      CHANNELS 3 Zrotation Xrotation Yrotation
      JOINT left_tibia_foot
      {
        OFFSET -4.370144 -48.10324 -4.275266
        CHANNELS 3 Zrotation Xrotation Yrotation
        End Site
        {
          OFFSET 0 -5 15
        }
      }
    }
  }
  JOINT pelvis_spine1
  {
    OFFSET 0 6.468898 -3.129235
    CHANNELS 3 Zrotation Xrotation Yrotation
    JOINT spine1
    {
      OFFSET 0 23.15396 4.99043
      CHANNELS 3 Zrotation Xrotation Yrotation
      JOINT spine2
      {
        OFFSET 0 20.79997 -5.064912
        CHANNELS 3 Zrotation Xrotation Yrotation
        JOINT neck
        {
          OFFSET 0 14.38658 9.616178
          CHANNELS 3 Zrotation Xrotation Yrotation
          End Site
          {
            OFFSET 0 20 0
          }
        }
      }
      JOINT right_manubrium
      {
        OFFSET -5.722621 16.35077 3.967754
        CHANNELS 3 Zrotation Xrotation Yrotation
        JOINT right_clavicle
        {
          OFFSET -13.16364 1.694482 -4.693211
          CHANNELS 3 Zrotation Xrotation Yrotation
          JOINT right_humerus
          {
            OFFSET -28.5034 -0.3100689 -2.792744
            CHANNELS 3 Zrotation Xrotation Yrotation
            JOINT right_radius
            {
              OFFSET -25.15693 0.02248979 -1.271978
              CHANNELS 3 Zrotation Xrotation Yrotation
              End Site
              {
                OFFSET -15 0 0
              }
            }
          }
        }
      }
      JOINT left_manubrium
      {
        OFFSET 5.722621 16.35077 3.967754
        CHANNELS 3 Zrotation Xrotation Yrotation
        JOINT left_clavicle
        {
          OFFSET 13.16364 1.694482 -4.693211
          CHANNELS 3 Zrotation Xrotation Yrotation
          JOINT left_humerus
          {
            OFFSET 29.39168 -1.063119 -2.237045
            CHANNELS 3 Zrotation Xrotation Yrotation
            JOINT left_radius
            {
              OFFSET 24.59957 -0.9528479 0.9047498
              CHANNELS 3 Zrotation Xrotation Yrotation
              End Site
              {
                OFFSET 15 -0 -0
              }
            }
          }
        }
      }
    }
  }
}
MOTION
Frames: 7
Frame Time: 0.0416666666667
403.0852 104.5314 2980.767 2.714707 -8.070952 6.774661 -0.4329393 2.424296 3.480912 -0 49.73517 -0 0.06661487 1.213371 -5.12173 -5.340909 -3.683805 -9.208796 -0 18.72239 -0 -3.934616 -12.67113 17.65579 -0.3889441 -1.497502 8.340855 -0.5930634 13.82848 -4.869594 1.339437 20.19286 4.238019 1.647669 -18.84941 5.413638 0.5220133 -24.99821 12.52022 85.00216 21.921 -9.595312 -0 0 23.81616 -26.25972 13.60382 16.16276 3.299763 -19.41758 -4.923226 -92.13802 17.17807 28.24972 0 0 -13.05188 1.135781 7.637101 12.41289
404.4703 105.4642 2986.605 2.579021 -7.289082 7.580716 -0.112029 -3.192946 3.300067 -0 48.43743 -0 -0.4792472 1.451133 -5.388673 -5.884617 1.04411 -10.3083 -0 18.05891 -0 -3.234356 -14.19028 17.43475 -0.4521068 -1.44117 7.764579 -0.2956824 13.66263 -5.397944 1.331719 20.2441 4.436459 1.739157 -18.91413 5.562928 0.6179248 -23.9532 12.42411 85.92083 22.23281 -11.512 -0 0 21.76664 -25.62288 13.60693 15.39921 3.559598 -20.11378 -5.110903 -90.77821 17.53017 25.76064 0 0 -15.35716 1.59017 7.652862 11.8735
405.7543 106.1419 2992.142 2.25652 -6.241302 8.324813 0.4566724 -8.851149 3.008447 -0 44.41265 -0 -1.402465 0.8873988 -5.358317 -6.071368 5.221914 -11.26366 -0 16.66253 -0 -2.301272 -15.68105 17.26534 -0.5010897 -1.406595 7.188042 0.01163914 13.52684 -5.948999 1.313993 20.27647 4.641476 1.834017 -19.02318 5.712518 0.7093071 -22.93717 12.34236 86.90871 22.52175 -13.49827 -0 0 19.6924 -24.97812 13.62118 14.6286 3.82238 -20.8648 -5.310011 -89.41447 17.76563 23.27168 0 0 -17.72859 2.121745 7.70019 11.24552
406.9311 106.4616 2997.445 1.828081 -5.152179 8.994496 1.12517 -14.12613 2.621459 -0 38.7576 -0 -2.458556 0.01967934 -5.19334 -5.982253 8.77078 -11.91701 -0 15.08576 -0 -1.425796 -17.02012 17.01395 -0.5383642 -1.391653 6.630364 0.3190568 13.41784 -6.50215 1.287593 20.29066 4.847274 1.93023 -19.16969 5.858479 0.799382 -21.97721 12.27577 87.92016 22.78684 -15.47859 -0 0 17.66674 -24.34014 13.64287 13.8745 4.0788 -21.63533 -5.508622 -88.10189 17.89445 20.87032 0 0 -20.07738 2.699646 7.768984 10.56627
408.0132 106.4047 3002.646 1.381514 -4.214896 9.594969 1.764197 -18.66078 2.137414 -0 32.52732 -0 -3.433351 -0.7140612 -5.026866 -5.717335 11.65282 -12.13869 -0 13.85754 -0 -0.8609715 -18.0996 16.56053 -0.5668143 -1.392449 6.105492 0.6177681 13.33043 -7.039195 1.25489 20.28997 5.048321 2.02555 -19.3433 5.997894 0.8892373 -21.09086 12.22302 88.91588 23.02747 -17.38951 -0 0 15.74607 -23.72184 13.66754 13.15537 4.32185 -22.39377 -5.697347 -86.8807 17.93654 18.6207 0 0 -22.32938 3.294206 7.850309 9.870707
409.0299 106.0166 3007.911 0.9906853 -3.56077 10.13676 2.291392 -22.1891 1.571003 -0 26.5776 -0 -4.188513 -1.044648 -4.937916 -5.371497 13.84004 -11.87534 -0 13.43376 -0 -0.7596016 -18.82271 15.85075 -0.5890628 -1.403745 5.624987 0.8984366 13.25904 -7.542072 1.219264 20.27968 5.238266 2.116909 -19.52956 6.127878 0.976928 -20.29143 12.18145 89.85968 23.24002 -19.17134 -0 0 13.97918 -23.13863 13.69044 12.48869 4.545475 -23.10984 -5.86903 -85.78131 17.9164 16.57368 0 0 -24.41589 3.87516 7.936125 9.193563
410.0192 105.3915 3013.394 0.7046773 -3.252256 10.62792 2.689169 -24.56637 0.9806754 -0 21.51328 -0 -4.67017 -0.8978077 -4.962887 -5.017318 15.32396 -11.17108 -0 14.20048 -0 -1.152193 -19.10425 14.91687 -0.6068317 -1.419954 5.202159 1.149707 13.1998 -7.990413 1.184645 20.26559 5.409054 2.200058 -19.71079 6.244354 1.05772 -19.59554 12.14842 90.7121 23.41761 -20.7572 -0 0 12.42068 -22.61268 13.70793 11.89611 4.742764 -23.75146 -6.017792 -84.83266 17.85889 14.78377 0 0 -26.2618 4.409396 8.018597 8.572355
